<svg width="26" height="12" fill="none" xmlns="http://www.w3.org/2000/svg"><path opacity=".35" d="M.794 2.667C.794 1.47 1.764.5 2.96.5h17.913c1.196 0 2.166.97 2.166 2.167v6.666c0 1.197-.97 2.167-2.166 2.167H2.96A2.167 2.167 0 01.794 9.333V2.667z" stroke="#18216D"/><path opacity=".4" d="M24.597 3.882v4.236a2.298 2.298 0 000-4.236z" fill="#18216D"/><path d="M2.407 3.451c0-.736.597-1.333 1.334-1.333h16.353c.736 0 1.333.597 1.333 1.333v5.098c0 .736-.597 1.333-1.333 1.333H3.74A1.333 1.333 0 012.407 8.55V3.451z" fill="#18216D"/></svg>