<svg width="71" height="20" fill="none" xmlns="http://www.w3.org/2000/svg"><path fill-rule="evenodd" clip-rule="evenodd" d="M0 2.857A2.857 2.857 0 012.857 0h14.286A2.857 2.857 0 0120 2.857v14.286A2.857 2.857 0 0117.143 20H2.857A2.857 2.857 0 010 17.143V2.857zm3.14 1.775v11.082h2.944v-6.45h.086l2.468 6.364h1.775l2.467-6.32h.087v6.406h2.943V4.632h-3.744L9.59 10.909h-.13L6.884 4.632H3.14zm6.384 1.082a1.905 1.905 0 100-3.81 1.905 1.905 0 000 3.81z" fill="#005FEC"/><path d="M25.231 14.375h1.607v-4.146c0-.839.56-1.407 1.252-1.407.679 0 1.145.457 1.145 1.158v4.395h1.576v-4.252c0-.768.457-1.301 1.234-1.301.648 0 1.163.382 1.163 1.225v4.328h1.611V9.798c0-1.522-.879-2.33-2.13-2.33-.99 0-1.745.488-2.047 1.247h-.07c-.263-.772-.924-1.247-1.843-1.247-.914 0-1.598.47-1.882 1.247h-.08V7.557h-1.536v6.818zm14.237.133c1.59 0 2.681-.777 2.965-1.962l-1.5-.168c-.218.576-.75.878-1.443.878-1.039 0-1.727-.683-1.74-1.85h4.75v-.493c0-2.393-1.438-3.445-3.116-3.445-1.953 0-3.227 1.434-3.227 3.538 0 2.14 1.256 3.502 3.31 3.502zm-1.714-4.186c.05-.87.693-1.602 1.652-1.602.923 0 1.544.675 1.553 1.602h-3.205zm9.51-2.765h-1.345V5.923h-1.607v1.634h-.968V8.8h.968v3.79c-.009 1.283.923 1.914 2.13 1.878a3.23 3.23 0 00.946-.16l-.27-1.256c-.09.022-.272.062-.471.062-.404 0-.728-.142-.728-.79V8.8h1.345V7.557zm4.748 0h-1.345V5.923H49.06v1.634h-.967V8.8h.967v3.79c-.008 1.283.924 1.914 2.131 1.878a3.23 3.23 0 00.946-.16l-.271-1.256a2.01 2.01 0 01-.47.062c-.405 0-.729-.142-.729-.79V8.8h1.345V7.557zm1.344 6.818h1.607V7.557h-1.607v6.818zm.808-7.786c.51 0 .928-.39.928-.87 0-.484-.417-.874-.928-.874-.515 0-.932.39-.932.874 0 .48.417.87.932.87zm4.058 3.791c0-.985.595-1.554 1.443-1.554.83 0 1.327.546 1.327 1.456v4.093H62.6v-4.341c.005-1.634-.928-2.566-2.335-2.566-1.02 0-1.722.488-2.033 1.247h-.08V7.557h-1.536v6.818h1.607V10.38zm8.976 6.694c1.842 0 3.2-.844 3.2-2.588v-6.93h-1.584v1.128h-.09c-.243-.492-.754-1.216-1.957-1.216-1.575 0-2.814 1.234-2.814 3.476 0 2.224 1.239 3.333 2.81 3.333 1.167 0 1.713-.625 1.962-1.127h.08v1.292c0 1.003-.666 1.416-1.58 1.416-.968 0-1.394-.458-1.59-.857l-1.447.35c.293.955 1.274 1.723 3.01 1.723zm.013-4.057c-1.06 0-1.62-.826-1.62-2.082 0-1.239.55-2.149 1.62-2.149 1.034 0 1.603.857 1.603 2.149 0 1.3-.577 2.082-1.603 2.082z" fill="#18216D"/></svg>