<svg width="18" height="12" fill="none" xmlns="http://www.w3.org/2000/svg"><path fill-rule="evenodd" clip-rule="evenodd" d="M16.906.356H15.85c-.584 0-1.057.474-1.057 1.059v9.176c0 .585.473 1.059 1.057 1.059h1.056c.584 0 1.057-.474 1.057-1.059V1.415c0-.585-.473-1.06-1.057-1.06zm-5.987 2.47h1.056c.584 0 1.057.474 1.057 1.06v6.705c0 .585-.473 1.059-1.057 1.059H10.92a1.058 1.058 0 01-1.057-1.059V3.885c0-.585.473-1.059 1.057-1.059zm-3.875 2.47H5.988c-.584 0-1.057.475-1.057 1.06v4.235c0 .585.473 1.059 1.057 1.059h1.056c.584 0 1.057-.474 1.057-1.059V6.356c0-.585-.473-1.06-1.057-1.06zm-4.93 2.119H1.056C.473 7.415 0 7.889 0 8.473v2.118c0 .585.473 1.059 1.057 1.059h1.056c.584 0 1.057-.474 1.057-1.059V8.473c0-.584-.473-1.058-1.057-1.058z" fill="#18216D"/></svg>